<svg width="180" height="180" viewBox="0 0 180 180" fill="none" xmlns="http://www.w3.org/2000/svg">
<path d="M0 20C0 8.9543 8.95431 0 20 0H160C171.046 0 180 8.95431 180 20V160C180 171.046 171.046 180 160 180H20C8.9543 180 0 171.046 0 160V20Z" fill="#38C958"/>
<path fill-rule="evenodd" clip-rule="evenodd" d="M119.958 91.0728C122.493 91.0728 124.971 91.374 127.393 91.9764C129.815 92.5788 132.104 93.4447 134.26 94.5742C136.455 95.7036 138.498 97.0966 140.39 98.7531C142.282 100.372 143.947 102.198 145.385 104.231L116.326 139.075C116.931 139.263 117.536 139.395 118.142 139.47C118.747 139.508 119.353 139.526 119.958 139.526C121.471 139.526 122.928 139.319 124.328 138.905C125.728 138.491 127.034 137.908 128.244 137.155C129.493 136.364 130.59 135.423 131.536 134.331C132.52 133.202 133.315 131.959 133.92 130.604L145.271 141.955C143.833 143.988 142.168 145.814 140.277 147.433C138.423 149.052 136.398 150.426 134.204 151.555C132.047 152.685 129.758 153.532 127.336 154.096C124.953 154.699 122.493 155 119.958 155C115.682 155 111.653 154.209 107.869 152.628C104.123 151.047 100.831 148.844 97.9935 146.021C95.1936 143.197 92.9801 139.846 91.3531 135.969C89.7261 132.053 88.9126 127.761 88.9126 123.093C88.9126 118.312 89.7261 113.944 91.3531 109.991C92.9801 106.038 95.1936 102.669 97.9935 99.8826C100.831 97.0966 104.123 94.9318 107.869 93.3882C111.653 91.8446 115.682 91.0728 119.958 91.0728ZM119.958 106.659C117.839 106.659 115.834 107.055 113.942 107.845C112.088 108.598 110.461 109.69 109.061 111.121C107.699 112.551 106.62 114.283 105.826 116.316C105.031 118.312 104.634 120.57 104.634 123.093C104.634 123.658 104.653 124.298 104.691 125.013C104.766 125.728 104.861 126.462 104.974 127.215C105.126 127.931 105.296 128.627 105.485 129.305C105.674 129.983 105.92 130.585 106.223 131.112L124.271 107.281C123.553 107.017 122.834 106.848 122.115 106.772C121.434 106.697 120.715 106.659 119.958 106.659Z" fill="white"/>
<path d="M38.8971 100.56C41.3944 98.3014 44.2322 96.5695 47.4105 95.3648C50.5888 94.1224 53.8806 93.5012 57.286 93.5012H70.9641V108.862H57.286C55.659 108.862 54.1266 109.163 52.6888 109.765C51.251 110.368 50.0023 111.196 48.9429 112.25C47.8834 113.304 47.051 114.547 46.4456 115.977C45.8402 117.408 45.5375 118.933 45.5375 120.552V153.871H30.0432V93.3882H33.7891L38.8971 100.56Z" fill="white"/>
<path d="M78.6829 41.3606H47.297C46.2375 41.3606 45.3294 41.7371 44.5727 42.49C43.8159 43.243 43.4376 44.1466 43.4376 45.2007C43.4376 46.2925 43.8159 47.2338 44.5727 48.0244C45.3294 48.7773 46.2375 49.1538 47.297 49.1538H63.4156C66.0642 49.1538 68.5615 49.6056 70.9074 50.5092C73.2533 51.3751 75.2965 52.5987 77.037 54.1799C78.7775 55.7611 80.1586 57.6624 81.1802 59.8837C82.2018 62.1049 82.7126 64.5332 82.7126 67.1686C82.7126 69.8417 82.2018 72.3453 81.1802 74.6795C80.1586 76.9761 78.7775 79.0091 77.037 80.7786C75.2965 82.5104 73.2533 83.8846 70.9074 84.9011C68.5615 85.8799 66.0642 86.3694 63.4156 86.3694H28V71.0088H63.4156C64.4751 71.0088 65.3831 70.6323 66.1399 69.8793C66.8966 69.1264 67.275 68.2228 67.275 67.1686C67.275 66.0768 66.8966 65.3615 66.1399 65.0227C65.3831 64.6838 64.4751 64.5144 63.4156 64.5144H47.297C44.6105 64.5144 42.0944 64.0062 39.7484 62.9897C37.4025 61.9731 35.3593 60.599 33.6188 58.8671C31.8783 57.0977 30.4973 55.0458 29.4757 52.7116C28.4919 50.3774 28 47.8738 28 45.2007C28 42.5277 28.4919 40.0241 29.4757 37.6899C30.4973 35.3557 31.8783 33.3226 33.6188 31.5908C35.3593 29.859 37.4025 28.5036 39.7484 27.5248C42.0944 26.5083 44.6105 26 47.297 26H78.6829V41.3606Z" fill="white"/>
<path d="M101.29 49.0015L106.192 56.475L97.7492 70.7677H115.016V86.3694H105.974C103.468 86.3148 97.6511 85.0602 94.4266 80.4779L87.0731 68.2583C86.3105 66.3308 85.243 61.4502 87.0731 57.3479L92.3022 48.7287L101.29 49.0015Z" fill="white"/>
<path d="M150.511 56.6758C151.571 58.712 153.11 63.9186 150.785 68.4562C148.461 72.9939 145.578 77.8008 144.427 79.637C142.654 81.855 137.761 86.3017 132.367 86.3454C126.974 86.389 123.944 86.3635 123.104 86.3454L118.609 78.7645L123.104 70.8016H140.151L131.6 56.8939L145.797 49.1493L150.511 56.6758Z" fill="white"/>
<path d="M112.002 28.5427H126.006C128.349 28.8364 133.678 30.3486 136.25 34.0485L141.644 42.7478L137.067 50.2358L127.532 50.6213L119.086 36.306L110.476 50.6213L96.4182 42.5827L101.159 34.8194C102.648 32.6905 106.902 28.4547 112.002 28.5427Z" fill="white"/>
</svg>
