<svg width="402" height="182" viewBox="0 0 402 182" fill="none" xmlns="http://www.w3.org/2000/svg">
<path d="M118.251 66.3348L125.128 76.8446L113.285 96.9434H137.505V118.883H124.822C121.307 118.807 113.147 117.042 108.624 110.598L98.3091 93.4145C97.2394 90.7039 95.7419 83.8407 98.3091 78.072L105.644 65.9513L118.251 66.3348Z" fill="#38C958"/>
<path d="M187.296 77.1268C188.782 79.9901 190.94 87.3121 187.68 93.6932C184.42 100.074 180.375 106.834 178.76 109.416C176.274 112.535 169.41 118.788 161.844 118.849C154.278 118.911 150.029 118.875 148.85 118.849L142.545 108.189L148.85 96.991H172.763L160.768 77.4335L180.683 66.5427L187.296 77.1268Z" fill="#38C958"/>
<path d="M133.278 37.5649H152.921C156.208 37.9778 163.683 40.1046 167.291 45.3076L174.858 57.5409L168.437 68.0706L155.061 68.6127L143.214 48.4819L131.138 68.6127L111.418 57.3084L118.067 46.3914C120.157 43.3976 126.124 37.4411 133.278 37.5649Z" fill="#38C958"/>
<path d="M0 39.1513C0 34.4393 0.902278 30.0186 2.70683 25.8891C4.51139 21.7595 6.95285 18.1594 10.0312 15.0887C13.1626 11.9651 16.7983 9.50325 20.9381 7.70319C25.078 5.90313 29.5098 5.0031 34.2335 5.0031H86.6187V27.795H34.2335C32.6412 27.795 31.1551 28.0862 29.7752 28.6686C28.3952 29.2509 27.1745 30.0716 26.113 31.1304C25.1045 32.1363 24.3084 33.3275 23.7246 34.7041C23.1408 36.0806 22.8489 37.563 22.8489 39.1513C22.8489 40.7395 23.1408 42.2484 23.7246 43.6779C24.3084 45.0544 25.1045 46.2721 26.113 47.3309C27.1745 48.3368 28.3952 49.131 29.7752 49.7134C31.1551 50.2957 32.6412 50.5869 34.2335 50.5869H57.0823C61.806 50.5869 66.2378 51.4869 70.3777 53.287C74.5706 55.0341 78.2062 57.4695 81.2846 60.5931C84.416 63.6638 86.8575 67.2904 88.609 71.4729C90.4135 75.6024 91.3158 80.0232 91.3158 84.7351C91.3158 89.447 90.4135 93.8677 88.609 97.9973C86.8575 102.127 84.416 105.753 81.2846 108.877C78.2062 111.948 74.5706 114.383 70.3777 116.183C66.2378 117.983 61.806 118.883 57.0823 118.883H6.36902V96.0913H57.0823C58.6746 96.0913 60.1607 95.8001 61.5406 95.2178C62.9206 94.6354 64.1148 93.8412 65.1232 92.8353C66.1847 91.7765 67.0074 90.5588 67.5912 89.1823C68.175 87.8058 68.4669 86.3234 68.4669 84.7351C68.4669 83.1468 68.175 81.6644 67.5912 80.2879C67.0074 78.9114 66.1847 77.7201 65.1232 76.7142C64.1148 75.6554 62.9206 74.8348 61.5406 74.2524C60.1607 73.67 58.6746 73.3788 57.0823 73.3788H34.2335C29.5098 73.3788 25.078 72.4788 20.9381 70.6787C16.7983 68.8787 13.1626 66.4433 10.0312 63.3726C6.95285 60.249 4.51139 56.6224 2.70683 52.4929C0.902278 48.3104 0 43.8632 0 39.1513Z" fill="#38C958"/>
<path d="M217.343 118.883H195.449V0H217.343V118.883Z" fill="#38C958"/>
<path d="M296.637 108.956C294.886 110.545 293.001 112.054 290.985 113.483C289.021 114.86 286.951 116.077 284.775 117.136C282.599 118.142 280.343 118.936 278.008 119.519C275.725 120.154 273.39 120.472 271.002 120.472C265.747 120.472 260.811 119.545 256.194 117.692C251.576 115.839 247.516 113.218 244.013 109.83C240.563 106.389 237.83 102.233 235.813 97.3619C233.849 92.4383 232.867 86.9322 232.867 80.8438V33.8305H254.522V80.8438C254.522 83.7027 254.947 86.2704 255.796 88.547C256.698 90.7706 257.892 92.65 259.378 94.1854C260.864 95.7207 262.589 96.8855 264.553 97.6796C266.57 98.4737 268.72 98.8708 271.002 98.8708C273.231 98.8708 275.327 98.3679 277.291 97.3619C279.308 96.3031 281.059 94.9266 282.546 93.2324C284.032 91.5382 285.199 89.6323 286.049 87.5146C286.898 85.3439 287.322 83.1203 287.322 80.8438V33.8305H309.057V118.883H303.802L296.637 108.956Z" fill="#38C958"/>
<path d="M372.508 118.883H322.83V97.2825H372.508C373.994 97.2825 375.268 96.7531 376.329 95.6943C377.391 94.6354 377.922 93.3648 377.922 91.8824C377.922 90.347 377.391 89.3411 376.329 88.8646C375.268 88.3881 373.994 88.1499 372.508 88.1499H349.898C346.13 88.1499 342.6 87.4352 339.309 86.0057C336.019 84.5762 333.153 82.6438 330.711 80.2085C328.27 77.7201 326.333 74.8348 324.9 71.5523C323.52 68.2698 322.83 64.7491 322.83 60.9902C322.83 57.2312 323.52 53.7105 324.9 50.4281C326.333 47.1456 328.27 44.2867 330.711 41.8513C333.153 39.416 336.019 37.51 339.309 36.1335C342.6 34.7041 346.13 33.9893 349.898 33.9893H393.924V55.59H349.898C348.412 55.59 347.138 56.1194 346.077 57.1783C345.015 58.2372 344.484 59.5078 344.484 60.9902C344.484 62.5255 345.015 63.8491 346.077 64.9609C347.138 66.0198 348.412 66.5492 349.898 66.5492H372.508C376.223 66.5492 379.726 67.1845 383.017 68.4551C386.307 69.6728 389.174 71.3935 391.615 73.6171C394.056 75.8407 395.994 78.5143 397.427 81.6379C398.86 84.7615 399.576 88.1764 399.576 91.8824C399.576 95.6413 398.86 99.162 397.427 102.444C395.994 105.674 394.056 108.533 391.615 111.021C389.174 113.457 386.307 115.389 383.017 116.818C379.726 118.195 376.223 118.883 372.508 118.883Z" fill="#38C958"/>
<path d="M207.475 169.45H199.097V136.666H201.122L203.884 140.553C205.234 139.329 206.769 138.39 208.487 137.737C210.206 137.064 211.986 136.727 213.827 136.727H221.222V145.053H213.827C212.947 145.053 212.119 145.216 211.341 145.543C210.564 145.869 209.889 146.318 209.316 146.89C208.743 147.461 208.293 148.134 207.966 148.91C207.638 149.685 207.475 150.512 207.475 151.389V169.45Z" fill="#38C958"/>
<path d="M237.579 161.43C237.906 161.532 238.233 161.603 238.561 161.644C238.888 161.664 239.215 161.675 239.543 161.675C240.361 161.675 241.148 161.562 241.905 161.338C242.662 161.113 243.368 160.797 244.023 160.389C244.698 159.96 245.291 159.45 245.803 158.858C246.335 158.246 246.764 157.573 247.092 156.838L253.229 162.991C252.452 164.093 251.551 165.083 250.529 165.96C249.526 166.838 248.432 167.582 247.245 168.195C246.079 168.807 244.841 169.266 243.532 169.572C242.243 169.899 240.913 170.062 239.543 170.062C237.231 170.062 235.052 169.633 233.006 168.776C230.981 167.919 229.201 166.725 227.667 165.195C226.153 163.664 224.956 161.848 224.076 159.746C223.197 157.624 222.757 155.297 222.757 152.767C222.757 150.175 223.197 147.808 224.076 145.665C224.956 143.522 226.153 141.696 227.667 140.186C229.201 138.676 230.981 137.502 233.006 136.666C235.052 135.829 237.231 135.411 239.543 135.411C240.913 135.411 242.253 135.574 243.563 135.9C244.872 136.227 246.11 136.696 247.276 137.309C248.462 137.921 249.567 138.676 250.59 139.574C251.613 140.451 252.513 141.441 253.29 142.543L237.579 161.43ZM241.875 144.196C241.486 144.053 241.097 143.961 240.709 143.92C240.34 143.88 239.952 143.859 239.543 143.859C238.397 143.859 237.313 144.073 236.29 144.502C235.287 144.91 234.408 145.502 233.651 146.277C232.914 147.053 232.331 147.992 231.901 149.094C231.472 150.175 231.257 151.4 231.257 152.767C231.257 153.073 231.267 153.42 231.288 153.808C231.329 154.195 231.38 154.593 231.441 155.001C231.523 155.389 231.615 155.767 231.717 156.134C231.82 156.501 231.953 156.828 232.116 157.114L241.875 144.196Z" fill="#38C958"/>
<path d="M286.003 143.186L279.865 149.338C279.559 148.481 279.139 147.716 278.607 147.043C278.075 146.349 277.472 145.767 276.797 145.298C276.142 144.829 275.426 144.471 274.649 144.227C273.871 143.982 273.073 143.859 272.255 143.859C271.109 143.859 270.025 144.094 269.002 144.563C268 145.033 267.12 145.696 266.363 146.553C265.627 147.39 265.044 148.39 264.614 149.553C264.184 150.716 263.969 152.002 263.969 153.41C263.969 154.552 264.184 155.624 264.614 156.624C265.044 157.624 265.627 158.501 266.363 159.256C267.12 160.011 268 160.603 269.002 161.032C270.025 161.46 271.109 161.675 272.255 161.675C273.073 161.675 273.861 161.562 274.618 161.338C275.375 161.113 276.081 160.797 276.735 160.389C277.41 159.96 278.004 159.45 278.515 158.858C279.047 158.246 279.477 157.573 279.804 156.838L285.941 162.991C285.164 164.093 284.264 165.083 283.241 165.96C282.239 166.838 281.144 167.582 279.957 168.195C278.791 168.807 277.554 169.266 276.244 169.572C274.955 169.899 273.626 170.062 272.255 170.062C269.943 170.062 267.764 169.633 265.719 168.776C263.693 167.899 261.913 166.705 260.379 165.195C258.865 163.685 257.668 161.919 256.789 159.899C255.909 157.879 255.469 155.716 255.469 153.41C255.469 150.9 255.909 148.553 256.789 146.369C257.668 144.186 258.865 142.288 260.379 140.676C261.913 139.043 263.693 137.757 265.719 136.819C267.764 135.88 269.943 135.411 272.255 135.411C273.626 135.411 274.966 135.584 276.275 135.931C277.605 136.278 278.863 136.788 280.049 137.462C281.257 138.115 282.361 138.921 283.364 139.88C284.387 140.839 285.266 141.941 286.003 143.186Z" fill="#38C958"/>
<path d="M298.032 181.939V173.521L302.697 173.582C303.515 173.582 304.303 173.449 305.059 173.184C305.816 172.919 306.512 172.552 307.146 172.082C307.801 171.613 308.374 171.052 308.865 170.399C309.356 169.766 309.755 169.072 310.061 168.317C309.141 168.705 308.2 169.093 307.238 169.48C306.297 169.868 305.346 170.062 304.384 170.062C302.359 170.062 300.456 169.705 298.677 168.99C296.897 168.276 295.332 167.266 293.981 165.96C292.652 164.634 291.598 163.032 290.821 161.154C290.064 159.256 289.685 157.134 289.685 154.787V136.666H298.032V154.787C298.032 155.95 298.196 156.971 298.523 157.848C298.871 158.705 299.331 159.43 299.904 160.022C300.477 160.593 301.142 161.022 301.899 161.307C302.676 161.593 303.505 161.736 304.384 161.736C305.244 161.736 306.052 161.542 306.809 161.154C307.586 160.746 308.261 160.215 308.834 159.562C309.407 158.909 309.857 158.175 310.184 157.358C310.512 156.522 310.675 155.665 310.675 154.787V136.666H319.114V165.317C319.094 167.623 318.644 169.786 317.764 171.807C316.884 173.827 315.677 175.592 314.143 177.102C312.629 178.612 310.859 179.806 308.834 180.684C306.809 181.561 304.64 182 302.328 182L298.032 181.939Z" fill="#38C958"/>
<path d="M354.251 143.186L348.113 149.338C347.807 148.481 347.387 147.716 346.855 147.043C346.323 146.349 345.72 145.767 345.045 145.298C344.39 144.829 343.674 144.471 342.897 144.227C342.119 143.982 341.321 143.859 340.503 143.859C339.357 143.859 338.273 144.094 337.25 144.563C336.248 145.033 335.368 145.696 334.611 146.553C333.875 147.39 333.292 148.39 332.862 149.553C332.432 150.716 332.218 152.002 332.218 153.41C332.218 154.552 332.432 155.624 332.862 156.624C333.292 157.624 333.875 158.501 334.611 159.256C335.368 160.011 336.248 160.603 337.25 161.032C338.273 161.46 339.357 161.675 340.503 161.675C341.321 161.675 342.109 161.562 342.866 161.338C343.623 161.113 344.329 160.797 344.983 160.389C345.659 159.96 346.252 159.45 346.763 158.858C347.295 158.246 347.725 157.573 348.052 156.838L354.19 162.991C353.412 164.093 352.512 165.083 351.489 165.96C350.487 166.838 349.392 167.582 348.206 168.195C347.039 168.807 345.802 169.266 344.492 169.572C343.204 169.899 341.874 170.062 340.503 170.062C338.191 170.062 336.013 169.633 333.967 168.776C331.941 167.899 330.162 166.705 328.627 165.195C327.113 163.685 325.916 161.919 325.037 159.899C324.157 157.879 323.717 155.716 323.717 153.41C323.717 150.9 324.157 148.553 325.037 146.369C325.916 144.186 327.113 142.288 328.627 140.676C330.162 139.043 331.941 137.757 333.967 136.819C336.013 135.88 338.191 135.411 340.503 135.411C341.874 135.411 343.214 135.584 344.523 135.931C345.853 136.278 347.111 136.788 348.298 137.462C349.505 138.115 350.609 138.921 351.612 139.88C352.635 140.839 353.514 141.941 354.251 143.186Z" fill="#38C958"/>
<path d="M366.802 169.45H358.363V123.626H366.802V169.45Z" fill="#38C958"/>
<path d="M386.288 161.43C386.616 161.532 386.943 161.603 387.27 161.644C387.598 161.664 387.925 161.675 388.252 161.675C389.07 161.675 389.858 161.562 390.615 161.338C391.372 161.113 392.078 160.797 392.732 160.389C393.408 159.96 394.001 159.45 394.512 158.858C395.044 158.246 395.474 157.573 395.801 156.838L401.939 162.991C401.161 164.093 400.261 165.083 399.238 165.96C398.236 166.838 397.141 167.582 395.955 168.195C394.789 168.807 393.551 169.266 392.241 169.572C390.953 169.899 389.623 170.062 388.252 170.062C385.94 170.062 383.762 169.633 381.716 168.776C379.69 167.919 377.911 166.725 376.376 165.195C374.862 163.664 373.666 161.848 372.786 159.746C371.906 157.624 371.466 155.297 371.466 152.767C371.466 150.175 371.906 147.808 372.786 145.665C373.666 143.522 374.862 141.696 376.376 140.186C377.911 138.676 379.69 137.502 381.716 136.666C383.762 135.829 385.94 135.411 388.252 135.411C389.623 135.411 390.963 135.574 392.272 135.9C393.582 136.227 394.819 136.696 395.985 137.309C397.172 137.921 398.277 138.676 399.3 139.574C400.322 140.451 401.223 141.441 402 142.543L386.288 161.43ZM390.584 144.196C390.196 144.053 389.807 143.961 389.418 143.92C389.05 143.88 388.661 143.859 388.252 143.859C387.107 143.859 386.022 144.073 384.999 144.502C383.997 144.91 383.117 145.502 382.36 146.277C381.624 147.053 381.041 147.992 380.611 149.094C380.181 150.175 379.967 151.4 379.967 152.767C379.967 153.073 379.977 153.42 379.997 153.808C380.038 154.195 380.089 154.593 380.151 155.001C380.233 155.389 380.325 155.767 380.427 156.134C380.529 156.501 380.662 156.828 380.826 157.114L390.584 144.196Z" fill="#38C958"/>
</svg>
